<?xml version="1.0" encoding="UTF-8"?>
<svg id="Camada_2" data-name="Camada 2" xmlns="http://www.w3.org/2000/svg" viewBox="0 0 237.21 229.65">
  <g id="Camada_2-2" data-name="Camada 2">
    <g>
      <path fill="currentColor" d="m31,65.17C48.22,35.22,80.54,15.04,117.57,15.04s70.6,20.96,87.55,51.88c3.97-2.68,8.67-4.27,13.44-4.27.45,0,.9.01,1.34.04C200.91,25.48,162.22,0,117.57,0S34.34,25.41,15.32,62.54c1.35-.25,2.72-.39,4.1-.39,4.28,0,8.2,1.11,11.59,3.03Z" stroke-width="0"/>
      <path fill="currentColor" d="m218.56,110.96c-.43,0-.87-.01-1.29-.03.05,1.29.08,2.59.08,3.9,0,27.5-11.13,52.41-29.13,70.46,4.09,3.07,7.17,7.43,8.79,12.44,21.8-20.9,35.38-50.31,35.38-82.9,0-2.76-.1-5.49-.29-8.2-3.99,2.72-8.72,4.34-13.54,4.34Z" stroke-width="0"/>
      <path fill="currentColor" d="m47.89,186.23c-18.56-18.12-30.1-43.41-30.1-71.41,0-1.48.04-2.96.1-4.43-5.74-.36-10.78-2.72-14.64-6.36-.33,3.55-.51,7.15-.51,10.78,0,32.88,13.82,62.53,35.97,83.46,1.63-4.85,4.95-9.08,9.17-12.06Z" stroke-width="0"/>
      <path fill="currentColor" d="m117.57,214.61c-11.11,0-21.8-1.82-31.79-5.17-.7,5.17-3.35,9.87-7.1,13.46,12.15,4.37,25.24,6.76,38.89,6.76s27.74-2.57,40.27-7.27c-3.66-3.51-6.24-8.17-7.32-13.35-10.32,3.61-21.4,5.58-32.95,5.58Z" stroke-width="0"/>
      <path fill="currentColor" d="m235.42,78.04c-2.14-4.49-5.95-7.85-10.73-9.47-2.02-.68-4.08-1.03-6.12-1.03-5,0-9.61,2.02-12.98,5.69-3.58,3.89-5.3,9.14-4.83,14.79.2,2.45.07,2.51-1.01,3-19.64,9-38.32,15.05-57.09,18.5-8.4,1.54-17,2.32-25.57,2.32-25.01,0-50.36-6.28-79.8-19.76q-1.4-.64-1-2.46c1.74-7.74-2.68-16.74-9.86-20.08-2.55-1.18-5.21-1.78-7.92-1.78-5.41,0-10.45,2.37-14.18,6.68-5.37,6.19-5.81,15.53-1.04,22.21,3.82,5.35,8.95,8.18,14.83,8.18,2.04,0,4.2-.34,6.42-1.01.89-.27,1.95-.42,3-.42,1.27,0,2.43.21,3.28.59,27.9,12.41,51.84,18.96,75.19,20.57-.22.39-.44.75-.67,1.1-3.63,5.62-7.26,11.23-10.9,16.85-8.79,13.57-17.88,27.61-26.7,41.5-1.43,2.26-2.48,2.65-4.16,2.65-.24,0-.49-.01-.75-.03-.41-.03-.83-.05-1.25-.05-2.6,0-5.26.58-7.48,1.63-4.5,2.13-7.88,5.91-9.51,10.65-1.59,4.61-1.3,9.47.82,13.69,3.39,6.77,9.77,10.97,16.65,10.97,2.58,0,5.08-.59,7.44-1.75,4.91-2.43,8.47-6.4,10.01-11.19,1.5-4.66.98-9.78-1.48-14.41-.97-1.84-.91-2.8.33-4.71,4.37-6.71,8.74-13.57,12.96-20.2,3.6-5.65,7.33-11.5,11.03-17.21,3.75-5.79,7.55-11.48,11.58-17.5,1.11-1.66,2.22-3.33,3.35-5.02,4.21,6.41,8.42,12.82,12.63,19.23,8.78,13.38,17.86,27.21,26.85,40.78,1.46,2.21,1.42,2.99.52,4.52-1.54,2.62-2.44,6.05-2.41,9.18.12,9.81,8.75,18.11,18.85,18.11.27,0,.54,0,.81-.02,9.25-.4,17.51-9.39,17.33-18.86-.18-9.68-8.5-17.86-18.17-17.86-.37,0-.74.01-1.11.04-.23.01-.46.02-.67.02-2.24,0-3.35-.73-4.98-3.26-6.35-9.86-12.91-19.81-19.25-29.43-3.26-4.95-6.53-9.9-9.78-14.86-2.63-4.01-5.19-8.01-7.9-12.25-.51-.8-1.03-1.61-1.55-2.42,23.95-1.79,48.63-8.7,77.61-21.7,1.04-.46,1.88-.68,2.66-.68s1.67.23,2.73.74c2.42,1.15,4.98,1.73,7.62,1.73,7.46,0,14.25-4.75,16.89-11.82,1.82-4.88,1.62-10.09-.55-14.67Zm-16.38,12.6c-2.32,0-4.81-2.33-4.83-4.54-.01-1.09.5-2.25,1.42-3.17.96-.98,2.2-1.54,3.38-1.54h.14c2.05.08,4.46,2.47,4.44,4.41-.02,2.3-2.4,4.83-4.54,4.84Zm-203.93-7.48c.88-.93,2.06-1.48,3.25-1.5h.08c2.31,0,4.61,2.21,4.64,4.46.03,2.38-2.17,4.62-4.62,4.7h-.14c-2.41,0-4.37-1.99-4.46-4.53-.04-1.1.42-2.24,1.25-3.12Zm50.25,118.48c.75.75,1.15,1.84,1.14,3.13,0,2.63-1.86,4.55-4.4,4.55h-.11c-2.47-.05-4.32-1.89-4.39-4.37-.04-1.41.35-2.58,1.11-3.37.74-.76,1.84-1.17,3.17-1.17l.02-3h0v3c1.45,0,2.64.43,3.44,1.23Zm107.9-1.34c2.55,0,4.46,1.82,4.54,4.32.04,1.26-.39,2.44-1.21,3.32-.82.87-1.96,1.36-3.3,1.38-1.17,0-2.35-.5-3.23-1.36-.88-.86-1.36-1.96-1.36-3.1,0-2.32,2.01-4.45,4.3-4.56.09,0,.17,0,.26,0Z" stroke-width="0"/>
      <path fill="currentColor" d="m84.88,64.96c-.05,9.09,3.37,17.55,9.61,23.82,6.11,6.14,14.3,9.52,23.05,9.52h.07c18.04-.04,32.9-14.91,33.11-33.16.1-8.89-3.34-17.34-9.71-23.78-6.33-6.41-14.69-9.95-23.53-9.95-18.19,0-32.51,14.73-32.6,33.54Zm32.66-22.67l.04,3c5.29.01,10.18,2.06,13.77,5.78,3.61,3.74,5.59,8.83,5.58,14.35-.03,10.55-8.55,19.14-19.01,19.14h-.17c-10.93-.1-19.26-8.3-19.37-19.07-.06-5.61,1.99-10.81,5.76-14.62,3.56-3.6,8.32-5.58,13.4-5.58v-3h0Z" stroke-width="0"/>
    </g>
  </g>
</svg>