<?xml version="1.0" encoding="UTF-8"?>
<svg id="Camada_2" data-name="Camada 2" xmlns="http://www.w3.org/2000/svg" viewBox="0 0 231.21 218.37">
  <g id="Camada_2-2" data-name="Camada 2">
    <g>
      <path fill="currentColor" d="m114.06,120.08c-6.04,9.1-11.72,17.46-17.21,25.95-8.05,12.44-15.9,25-23.98,37.41-1.73,2.66-2.04,4.79-.47,7.75,4.4,8.3,1.21,17.34-7.21,21.5-7.33,3.62-16.02.21-20.07-7.88-3.65-7.27-.43-16.62,7.3-20.28,2.15-1.02,4.84-1.48,7.22-1.3,3.62.27,5.69-.89,7.67-4.01,12.4-19.53,25.04-38.9,37.58-58.33.87-1.35,1.59-2.81,2.57-4.55-1.39-.5-2.25-1.04-3.15-1.1-26.48-1.67-51.2-9.7-75.25-20.39-2.4-1.07-5.82-1.08-8.37-.3-7.19,2.18-13.34.38-17.93-6.04-3.96-5.55-3.6-13.35.87-18.5,4.81-5.55,12.06-7.17,18.57-4.14,5.74,2.67,9.65,10.23,8.19,16.7-.66,2.95-.25,4.5,2.67,5.84,34.13,15.63,69.39,24.59,107.15,17.66,20.05-3.68,39.26-10.22,57.8-18.72,2.89-1.33,2.98-3.19,2.75-5.98-.98-11.77,9.21-19.99,19.98-16.35,8.37,2.83,12.57,11.83,9.43,20.25-3.06,8.21-12.42,12.22-20.41,8.43-2.82-1.34-5.02-1.37-7.9-.08-24.58,11.03-49.89,19.51-77.01,21.48-1.1.08-2.17.51-4.2,1.01,4.13,6.42,7.9,12.38,11.77,18.28,9.67,14.76,19.47,29.43,29.01,44.26,2.1,3.26,4.16,4.87,8.36,4.61,8.62-.54,15.93,6.58,16.09,14.88.15,7.76-6.92,15.48-14.46,15.81-8.66.38-16.42-6.52-16.53-15.13-.03-2.56.7-5.43,1.99-7.62,1.77-2.99,1.13-5.08-.6-7.7-13.24-19.98-26.35-40.04-39.52-60.06-.62-.95-1.43-1.77-2.7-3.34Zm109.52-40.65c.03-3.58-3.63-7.29-7.33-7.43-4.17-.16-8.1,3.62-8.05,7.74.04,3.83,3.89,7.51,7.84,7.5,3.77,0,7.5-3.87,7.53-7.81Zm-208.02,7.99c4.08-.13,7.57-3.72,7.52-7.73-.04-3.97-3.76-7.51-7.79-7.43-4.12.09-7.58,3.7-7.43,7.74.16,4.24,3.59,7.55,7.7,7.42Zm162.24,110.7c-.15-4.26-3.62-7.41-7.94-7.2-3.9.19-7.15,3.62-7.15,7.55,0,4.08,3.58,7.54,7.74,7.45,4.26-.09,7.51-3.53,7.36-7.8Zm-118.91-7.11c-4.45.01-7.41,3.11-7.28,7.63.11,4.07,3.26,7.19,7.32,7.28,4.27.09,7.55-3.18,7.57-7.53.02-4.39-3.07-7.39-7.61-7.38Z" stroke-width="0"/>
      <path fill="currentColor" d="m20.97,57.16c7.01-13.64,16.3-25.11,28.14-34.19C68.41,8.16,90.48-.53,114.84.03c40.53.92,72.12,18.61,93.18,53.9,1.25,2.1,2.08,3.71-.8,5.25-2.73,1.46-4.17.63-5.58-1.86-5.7-10.09-12.78-19.16-21.86-26.36C148.14,5.84,113.47.52,75.82,15.55c-20.14,8.04-34.71,22.4-46.19,40.34q-2.9,4.53-8.66,1.27Z" stroke-width="0"/>
      <path fill="currentColor" d="m84.89,58.58c.09-17.11,13.13-30.57,29.62-30.56,16.62,0,30.42,14.02,30.22,30.69-.19,16.69-13.63,30.16-30.12,30.2-16.66.04-29.81-13.38-29.72-30.33Zm29.71-22.69c-12.51-.03-22.34,10.26-22.21,23.23.13,12.35,9.84,21.93,22.34,22.04,12.21.11,22.18-9.82,22.21-22.13.03-13.03-9.7-23.11-22.34-23.14Z" stroke-width="0"/>
      <path fill="currentColor" d="m186.69,183.1c5.71-8.41,11.63-16.07,16.4-24.39,8.85-15.45,13.07-32.29,12.87-50.17-.01-1.17-.42-2.62.12-3.43.95-1.43,2.5-2.46,3.8-3.66.94,1.21,2.63,2.38,2.71,3.65.86,14.64-1.26,28.87-6.48,42.61-5.01,13.21-12,25.21-21.48,35.74-4.38,4.87-4.36,4.89-7.93-.33Z" stroke-width="0"/>
      <path fill="currentColor" d="m39.01,186.77c-22.19-24.14-33.04-52.23-30.95-85.43,4.57-.3,6.73.7,6.7,5.38-.22,27,8.21,50.91,26.12,71.31,3.61,4.11,3.42,4.95-1.87,8.74Z" stroke-width="0"/>
      <path fill="currentColor" d="m77.66,211c1.05-5.49,3.79-5.64,8.39-4.11,19.2,6.38,38.58,6.28,57.9.35,5.55-1.71,5.49-1.91,8.19,3.43-8.39,10.05-59.77,10.39-74.48.34Z" stroke-width="0"/>
    </g>
  </g>
</svg>