<?xml version="1.0" encoding="UTF-8"?>
<svg id="Camada_2" data-name="Camada 2" xmlns="http://www.w3.org/2000/svg" viewBox="0 0 269.92 315.49">
  <g id="Camada_2-2" data-name="Camada 2">
    <g>
      <path fill="currentColor" d="m90.87,199.6c-4.02-.73-7.44-1.29-10.84-1.97-5.6-1.12-6.98-4.03-3.98-8.87,7.58-12.23,14.03-24.94,17.1-39.13,2.53-11.7,2.14-22.71-6.26-32.45-4.66-5.4-5.76-12.23-5.14-19.48-18.73-8.24-37.09-16.9-55.92-24.4-12.59-5.01-19.76-14.1-24.3-26.09-.64-1.7-1.19-3.48-1.43-5.27-.74-5.39,3.5-9.47,8.52-7.55,5.37,2.05,10.88,4.54,15.3,8.1,7.3,5.88,15.46,9.46,24.18,12.39,15.76,5.31,32,9.7,46.9,16.86,15.66,7.53,29.86,4.01,44.87-.31,17.89-5.15,35.97-9.63,53.94-14.54,2.5-.68,4.86-1.99,7.17-3.22,6.59-3.5,13-7.34,19.72-10.58,3.2-1.54,7.52-1.94,9.48,1.58,1.38,2.47,1.68,6.52.66,9.17-4.79,12.42-12.53,21.78-26.06,26.16-21.67,7.01-42.97,15.12-64.52,22.51-3.68,1.26-5.69,3.1-5.84,6.89-.22,5.47-.87,10.98-.41,16.39.51,5.94,3.56,11.03,9.48,13,7.67,2.56,15.62,4.26,23.38,6.57,2.03.6,4.21,1.68,5.6,3.2,2.94,3.21,12.57,5.03,16.12,2.71,9.81-6.43,20.76-6.57,31.8-5.19,3.25.41,4.69-.28,6.71-2.96,2.13-2.82,5.68-5.55,9.05-6.27,10.02-2.14,19.58.26,28.08,5.88,7.75,5.12,7.69,11.9-.76,15.36-12.73,5.21-25.95,9.22-39.02,13.55-11.61,3.85-23.88,5.17-35.11,10.8-9.27,4.65-19.86,3.19-30.02,3.1-2.39-.02-4.96,1.07-7.16,2.21-2.93,1.53-5.36,4.29-8.4,5.29-6.18,2.02-8.91,6.42-11.35,12.02-3.92,8.98-8.86,17.51-13.04,26.39-.92,1.95-1.12,4.75-.5,6.82,3.08,10.31.91,20.14-2.23,29.88-.95,2.95-1.05,4.95.77,8.03,1.99,3.37,2.63,8.32,2,12.28-1.44,9.07-6.24,16.75-12.52,23.43-5.08,5.41-12.54,5.19-13.45-3.88-1.27-12.57-2.36-25.16-3.34-37.76-.37-4.81-.21-9.66-.34-14.49-.19-6.75-1.12-13.4-1.99-20.09-1.24-9.49.81-19.41,1.58-29.14.17-2.12.91-4.18,1.54-6.94Zm71.13-45.7c-3.72-.82-6.98-1.44-10.19-2.25-21.96-5.53-30.89-18.02-26.93-40.3,1.6-8.97-.49-17.13-.87-24.61-8.68-.82-16.99-1.61-26.13-2.48-.67,1.23-1.79,3.62-3.22,5.82-5.65,8.69-5.04,16.68,1.77,24.64,5.02,5.87,7.12,13.12,7.32,20.81.31,12.05-2.83,23.4-7.57,34.33-2.83,6.51-6.13,12.82-9.31,19.41,12.81,2.34,25.36,3.07,37.93.33,19.42-4.23,31.36-16.37,37.21-35.72Zm-61.58,148.38c.49.11.99.22,1.48.34,4.31-5.08,7.39-10.89,8.24-17.55.2-1.59-1.6-4.15-3.18-5.1-3.02-1.82-3.84-3.88-2.66-7.02,1.34-3.58,2.94-7.09,3.93-10.77,2.09-7.71,4.48-15.6.08-23.26-1.65-2.87-1.68-5.14.06-7.83,1.44-2.23,2.61-4.64,3.8-7.02,3.99-7.95,7.94-15.92,11.84-23.75-7.81,0-14.94-.13-22.06.14-1.04.04-2.6,1.84-2.92,3.08-1.25,4.82-2.49,9.71-2.99,14.64-.53,5.25-.56,10.6-.19,15.87.28,3.99,2.04,7.88,2.24,11.87.95,18.78,1.58,37.58,2.33,56.37Zm62.46-126.5c9.06.49,17.72.62,25.97-3.4,3.08-1.5,6.21-3.04,9.49-3.96,14.72-4.15,29.53-7.96,44.24-12.14,5.33-1.51,10.46-3.71,16.68-5.95-6.73-3.86-12.7-5.55-19.15-5.26-3.69.17-6.3,1.51-6.4,5.98-.1,4.15-2.49,5.43-6.74,4.98-7.42-.79-14.97-1.64-22.34-1.05-4.47.36-9.14,2.78-12.93,5.42-2.8,1.95-4.96,2.8-8.12,1.78-4.2-1.36-8.48-2.47-12.61-3.66-2.78,5.93-5.3,11.32-8.09,17.27Zm-28.49-81.69c.81-.14,1.3-.16,1.74-.31,23.97-8.42,48.02-16.63,71.86-25.43,6.33-2.33,9.41-8.55,12.16-14.58-4.86,2.11-9.23,4.76-13.65,7.33-2.42,1.4-4.79,3.17-7.42,3.89-18.74,5.12-37.53,10.04-56.33,14.95-8.9,2.33-10.22,4.37-8.36,14.16Zm-44.08-15.02c-14.04-4.85-27.31-9.62-40.7-14.02-11.54-3.79-22.99-7.55-32.24-15.96-1.68-1.52-3.91-2.43-6.95-4.26,4.2,9.84,9.3,16.55,18.47,19.62,5.33,1.79,10.36,4.46,15.53,6.73,13.35,5.85,26.71,11.7,40.49,17.74,1.8-3.29,3.44-6.28,5.4-9.85Z" stroke-width="0"/>
      <path fill="currentColor" d="m117.46,10.27c3.65,1.22,6.18-.47,8.82-4.37,3.66-5.42,9.72-6.91,16.05-5.25,6.14,1.61,10.13,5.87,11.33,12.08,1.21,6.22-.81,11.72-6.08,15.33-2.69,1.84-3.4,3.56-3.39,6.81.04,12.28-4.53,22.77-14.01,30.74-8.82,7.41-19.5,7.56-28.3.14-10.65-8.98-15.5-20.77-14.07-34.6,1.38-13.3,12.8-21.24,29.65-20.88Zm2.29,25.82c-6.69,4.32-13.06,8.43-19.51,12.6,3.24,8.2,9.65,13.54,16.29,13.23,7.1-.33,14.27-7.8,16.81-17.52-2.38-1.14-4.87-2.08-7.1-3.46-2.39-1.48-4.53-3.36-6.49-4.85Zm-8.06-16.23c-11.35,1.04-16.95,8.62-13.96,18.48,11.85-3.05,16.93-9.63,13.96-18.48Zm22.84,14.85c.1-8.86-4.31-13.67-13.09-14.43,1.85,7.07,6.06,11.63,13.09,14.43Zm8.02-12.24c.76-3.66,2.17-6.52,1.59-8.88-.45-1.84-3.29-4.11-5.24-4.29-2.23-.2-4.65,1.69-7.55,2.91,3.94,3.61,6.82,6.25,11.2,10.26Z" stroke-width="0"/>
    </g>
  </g>
</svg>