<?xml version="1.0" encoding="UTF-8"?>
<svg id="Camada_2" data-name="Camada 2" xmlns="http://www.w3.org/2000/svg" viewBox="0 0 278.55 293.02">
  <g id="Camada_2-2" data-name="Camada 2">
    <path d="m232.53,281.06c3.27,3.33,11.24,16.56,24.04,8.84,9.41-5.68,12.61-20.13,12.61-36.76,0-4.64,0-9.28,0-13.9,1.43-.39,2.09-.72,2.76-.74,3.56-.1,6.91-1.41,6.6-9.07-.29-7.42-3.74-8.02-7.23-8.14-2.87-.1-5.92.07-8.58-1.51-22.06-13.12-43.16-29.8-62.56-52.61-20.42-24.01-38.46-52.5-53.87-86.02-4.88-10.61-3.07-21.68,4.07-25.52,9.95-5.35,19.95-10.38,29.79-16.27,2.18-1.31,3.75-5.67,5.6-8.62-1.91-3.24-3.5-8.12-5.77-9.45-12.13-7.1-24.42-13.33-36.67-19.83-6.86-3.64-9.02-.79-9.05,12.07-.04,17.89.23,35.79-.16,53.65-.12,5.43-1.23,11.81-3.16,15.96-24.1,51.83-53.69,91.56-88.71,118.36-12.04,9.22-23.82,21.02-37.81,20.36-1.54-.07-4.05,5.2-4.42,8.57-.23,2.05,2.62,5.61,4.39,7.67.99,1.15,2.63.62,4.74.97,0,5.21,0,9.64,0,14.07-.02,16.64,3.62,29.29,12.59,36.8,1.11.93,10.07,5.4,16.45-.92,2.44-2.41,4.85-5.27,7.4-8.17,5.84,9.97,12.45,12.12,21.58,10.46,4.35-.79,6.15-2.21,11.15-7.24,10.58,12.15,20.43,11.44,29.46-3.38,11.88,15.89,19.33,15.94,31.34.37,12.45,15.61,19.71,15.57,31.39-.36,8.53,13.82,17.92,15.76,28.53,4.47,15.06,14.29,27.45,6.77,33.5-4.1Zm-192.07-22.3c-.58,10.15-5.59,17.15-11.34,16.67-5.64-.48-9.82-7.63-10.14-17.79-.18-5.89-.03-11.8-.03-18.72h21.58c0,6.93.3,13.44-.07,19.83Zm197.41-19.82h21.43c-.36,11.96,2.35,24.49-4.5,33.19-3.63,4.61-7.83,4.86-11.6.81-7.51-8.06-5.19-21.12-5.33-34Zm-171.38,33.92c-3.76,4.06-7.94,3.94-11.58-.6-6.84-8.52-4.5-21.05-4.78-33.2h21.5c-.57,12.42,2.47,25.59-5.13,33.8Zm1.51-51.49h-24.56c32.5-26.73,61.2-62.1,85.89-107.62-3.3,23.88-9.48,45.12-17.51,64.83-1.38,3.39-2.87,6.65-4.38,9.88-14.89,31.98-16.01,32.9-39.45,32.9Zm34.28,41.27c-1.11,9.02-5.99,13.71-11.37,12.65-5.28-1.04-8.97-7.7-9.22-17.17-.16-6.16-.03-12.34-.03-19.28h21.6c-.29,8.23-.05,16.24-.98,23.8Zm27.54,9.35c-3.59,4.68-7.77,5-11.58,1.09-7.65-7.86-5.27-21-5.5-34.1h21.55c-.65,11.67,2.31,24.18-4.47,33.01Zm35.76-13.58c-.59,10.25-5.35,17.34-11.12,17.04-5.7-.3-9.9-7.16-10.28-17.4-.23-6.14-.04-12.32-.04-19.58,6.66,0,12.45-.31,18.22.26,1.16.11,2.95,3.3,3.17,5.47.48,4.6.33,9.5.05,14.21Zm-62.22-37.29c16.7-28.44,28.34-60.71,35.49-100.41,7.31,39.17,18.6,71.81,35.76,100.41h-71.25Zm89.15,50.69c-3.76,4.98-7.99,5.01-12.02,1.04-4.96-4.88-6.34-15.27-4.67-34.03h20.96c-.91,11.5,2.52,23.99-4.27,32.99Zm-.4-50.56c-1.41-.02-3.08-.98-4.16-2.52-19.32-27.43-32.77-61.74-39.64-103.66-.13-.8-.13-1.67-.34-4.35,25.1,47.73,54.02,83.64,87.08,110.64-14.31,0-28.63.07-42.94-.11Zm14.62,17.87h21.51c-.31,12.13,2.02,24.67-4.83,33.17-3.65,4.52-7.83,4.62-11.59.55-7.58-8.23-4.54-21.39-5.09-33.72Z" stroke-width="0"/>
  </g>
</svg>