<?xml version="1.0" encoding="UTF-8"?>
<svg id="Camada_2" data-name="Camada 2" xmlns="http://www.w3.org/2000/svg" viewBox="0 0 299.98 300.06">
  <g id="Camada_2-2" data-name="Camada 2">
    <g>
      <path fill="currentColor" d="m298.54,131.7c-2.95-3.24-5.84-1.53-8.58,1.03-22.4,20.98-47.71,37.72-75.4,50.79-58.82,27.75-119.5,34.49-182.32,15.44-8.26-2.5-16.35-5.46-24.32-8.77-3.17-1.32-6.09-.96-7.45,2.57-1.25,3.27.49,5.38,3.53,6.59,1.08.43,2.13.94,3.21,1.36,17.82,6.98,36.05,12.43,54.99,15.48,4.18.67,10.06-.49,12.14,2.57,2.03,2.98.44,8.35.72,12.65.2,2.98-.74,3.99-3.79,4.91-13.94,4.21-22.81,17.94-21.09,31.8,1.79,14.42,13.03,25.39,27.36,26.68,13.85,1.24,27.34-7.95,31.29-21.32,4.04-13.68-1.8-29.76-15.19-34.7-8.96-3.3-8.78-8.35-8.77-15.4,0-4.15,1.48-4.57,4.9-4.26,5.13.46,10.31.72,15.46.65,16.34-.21,32.54-1.87,48.54-5.29,1.68-.36,3.97-1.52,3.7,1.81-.69,8.53,1.04,16.93-3.15,25.6-3.63,7.51-6.92,11.83-15.63,11-3.96-.38-6.78,2.31-8.13,6.15-1.3,3.71-.6,7.48,2.52,9.43,8.22,5.13,9.69,11.63,6.23,20.34-1.45,3.65.4,7.29,3.75,9.55,3.19,2.16,6.99,2.42,9.79-.13,6.59-6.01,12.6-6.19,19.21-.05,2.81,2.61,6.61,2.31,9.79.23,3.37-2.2,5.32-5.89,3.82-9.51-3.75-9.03-1.7-15.47,6.51-20.74,3.07-1.97,3.54-5.83,2.09-9.51-1.43-3.62-4.12-5.51-7.91-5.88-2.82-.27-5.64-.44-8.47-.66-1.3-.1-2.75.11-3.25-1.6-2.45-8.37-9.29-15.48-7.19-25.17.14-.64,0-1.33.02-1.99.11-3.98-1.06-8.77.76-11.68,1.46-2.33,6.56-2.39,10.05-3.44,23.16-6.94,44.97-16.94,66.66-29.55,0,6.59-.11,12.38.05,18.17.07,2.58-.59,3.52-3.36,4.2-19.4,4.71-30.96,24.83-25.35,43.61,4.8,16.05,20.79,26.89,37,25.09,17.09-1.91,30.13-15.18,31.57-32.13,1.39-16.45-9.5-32.21-25.79-36.34-3.73-.95-4.26-2.38-4.16-5.59.2-6.49.22-12.99-.01-19.48-.11-2.89.99-4.45,3.31-5.97,13.65-8.97,26.58-18.88,38.54-30.02,2.67-2.49,4.78-5.27,1.82-8.53Zm-115.36,131.03c-10.37,6.29-12.74,14.47-7.98,25.42-8.63-7.73-16.75-8.21-25.37.1,4.52-10.86,2.52-19.14-8.15-25.31,11.39.68,18.64-3.46,20.6-15.37,2.88,10.82,8.72,16.82,20.9,15.16Z" stroke-width="0"/>
      <path fill="currentColor" d="m2.38,9.42c1.1,1.02,2.17,2.07,3.28,3.07,11.36,10.3,23.52,19.58,36.36,27.95,2.19,1.43,3.16,2.88,3.08,5.58-.21,6.99-.18,13.99-.01,20.98.06,2.66-.74,3.48-3.43,4.14-19.58,4.79-31.16,25.4-25.04,44.11,6.48,19.81,27.37,29.77,46.46,22.14,13.95-5.57,22.91-19.8,21.89-34.76-1.02-14.96-11.7-27.79-26.33-31.55-1.71-.44-3.69-.02-3.63-2.9.15-6.25.05-12.5.05-19.5,24.19,14.29,49.07,25.05,75.46,32.16,1.37.37,2.15.91,1.97,2.29-1.19,9.3,1.61,18.57-2.93,28.14-3.72,7.85-7.02,12.5-16.14,11.71-3.71-.32-6.42,2.29-7.78,5.93-1.37,3.7-.79,7.51,2.3,9.47,8.33,5.27,10.08,11.83,6.36,20.79-1.42,3.42.47,6.91,3.6,9.13,3.17,2.24,6.99,2.62,9.77.12,6.76-6.1,12.87-6.19,19.64,0,2.78,2.54,6.61,2.1,9.77-.1,3.15-2.2,5.04-5.71,3.62-9.12-3.74-8.96-1.91-15.5,6.35-20.79,3.08-1.97,3.69-5.77,2.31-9.47-1.43-3.84-4.26-5.79-8.28-6.11-2.82-.22-5.64-.48-8.47-.63-1.41-.07-2.55-.28-3.11-1.85-3.16-8.86-9.17-16.95-7.07-27.21.36-1.76.2-3.67.02-5.48-.32-3.28.78-3.78,3.98-3.13,21.12,4.31,42.43,6.59,63.99,4.63,3.88-.35,5.01.8,4.59,4.51-.3,2.63-.21,5.33-.02,7.98.2,2.71-.53,3.78-3.47,4.65-14.01,4.11-22.95,17.59-21.44,31.57,1.55,14.36,12.7,25.47,27.07,26.98,13.74,1.44,27.3-7.58,31.53-20.98,4.26-13.49-1.5-29.56-14.83-34.89-8.61-3.44-9.82-8.26-8.9-15.7.06-.49.09-1.01,0-1.5-.56-3,.74-3.81,3.68-4.17,15.69-1.93,31.08-5.34,46.08-10.37,6.92-2.32,13.73-4.93,20.57-7.49,3.26-1.22,5.79-3.23,4.1-7.12-1.65-3.8-4.75-3.54-7.99-2.03-.9.42-1.85.73-2.77,1.09-45.35,18.06-91.97,22.94-139.93,13.23-38.82-7.86-74.06-24.05-106.6-46.38C30.56,20.62,19.56,12.01,9.45,2.3,6.96-.1,4.21-1.06,1.59,1.6c-2.6,2.64-1.78,5.44.79,7.83Zm237.54,125.36c.09,11.02-8.78,20.06-19.78,20.15-11.01.09-20.06-8.79-20.15-19.79-.09-11.02,8.77-20.05,19.78-20.15,11.02-.09,20.05,8.78,20.15,19.78Zm-164.91-29.7c-.05,13.79-11.37,24.97-25.19,24.86-13.79-.11-24.9-11.48-24.74-25.32.16-13.78,11.59-24.83,25.44-24.61,13.57.22,24.54,11.44,24.49,25.06Z" stroke-width="0"/>
      <path fill="currentColor" d="m244.73,30.03c8.35.12,15.3-6.8,15.2-15.16-.1-8.17-6.86-14.85-15.03-14.82-8.17.02-14.9,6.74-14.95,14.9-.05,8.15,6.62,14.96,14.78,15.08Z" stroke-width="0"/>
      <path fill="currentColor" d="m105.9,30.05c2.81.01,6.43-.97,8.24.41,2.23,1.7.71,5.55.82,8.46.13,3.48,1.43,6.04,5.12,5.99,3.69-.05,4.87-2.69,4.97-6.14.25-8.37.32-8.37,8.72-8.72.17,0,.33,0,.5,0,3.3-.04,5.59-1.57,5.62-4.96.03-3.39-2.22-4.95-5.53-5.05-2.96-.09-6.91.9-8.61-.61-2.08-1.85-.51-5.92-.72-9.02-.21-3.11-1.79-4.86-4.89-5.38-3.56.41-5.14,2.49-5.14,6.03,0,2.8.92,6.47-.49,8.18-1.73,2.11-5.58.64-8.5.75-3.5.14-5.97,1.54-5.87,5.23.09,3.39,2.49,4.8,5.77,4.82Z" stroke-width="0"/>
      <path fill="currentColor" d="m83.85,175c3.47-.12,6.06-1.38,6.05-5.07-.01-3.69-2.62-4.91-6.08-5.02-8.45-.27-8.45-.33-8.78-8.66,0-.17,0-.33,0-.5-.02-3.29-1.5-5.61-4.9-5.68-3.39-.07-5,2.15-5.1,5.47-.09,2.96.93,6.88-.57,8.64-1.84,2.15-5.9.54-9,.76-3.08.22-5.21,1.67-5.32,4.78-.12,3.39,2.02,5.1,5.34,5.22,2.97.12,6.84-.98,8.7.49,2.28,1.81.6,5.88.81,8.96.23,3.34,1.84,5.18,5.13,5.57,3.36-.56,4.91-2.53,4.91-5.85,0-2.82-.99-6.42.37-8.26,1.68-2.28,5.54-.75,8.44-.85Z" stroke-width="0"/>
      <path fill="currentColor" d="m184.64,54.93c3.11.24,4.8-1.7,5.36-4.71-.28-3.03-1.82-5.04-4.94-5.13-2.87-.08-4.75,1.65-4.99,4.47-.27,3.1,1.52,5.13,4.57,5.37Z" stroke-width="0"/>
      <path fill="currentColor" d="m270.01,104.9c-.07,3.12,1.92,4.72,5.2,5.15,2.7-.56,4.75-2.07,4.65-5.23-.09-2.85-1.88-4.67-4.72-4.76-3.1-.09-5.06,1.74-5.12,4.83Z" stroke-width="0"/>
      <path fill="currentColor" d="m130.07,184.85c-.08,2.88,1.66,4.75,4.47,5,3.1.27,5.14-1.52,5.37-4.58.24-3.12-1.69-4.82-4.71-5.36-3.05.28-5.04,1.81-5.13,4.94Z" stroke-width="0"/>
      <path fill="currentColor" d="m20.02,249.97c-2.87,0-4.71,1.77-4.88,4.6-.19,3.1,1.63,5.1,4.71,5.25,3.12.15,4.78-1.8,5.24-4.85-.37-3.02-1.93-4.99-5.07-5Z" stroke-width="0"/>
      <path fill="currentColor" d="m279.88,274.94c-2.88.02-4.71,1.77-4.88,4.6-.19,3.1,1.63,5.1,4.71,5.25,3.12.15,4.78-1.8,5.28-5.11-.5-2.67-1.91-4.77-5.11-4.75Z" stroke-width="0"/>
    </g>
  </g>
</svg>