<?xml version="1.0" encoding="UTF-8"?>
<svg id="Camada_2" data-name="Camada 2" xmlns="http://www.w3.org/2000/svg" viewBox="0 0 457.65 457.32">
  <g id="Camada_2-2" data-name="Camada 2">
    <path fill="currentColor" d="m229.13.21c52.32,0,104.66.61,156.97-.2,39.51-.61,71.79,31.03,71.55,71.66-.63,104.81-.21,209.63-.22,314.44,0,37.23-24.12,65.32-60.82,70.72-3.11.46-6.32.31-9.48.31-105.48.01-210.96-.29-316.44.17C31.73,457.49-.23,425.93,0,386.39c.62-105.14.53-210.3.03-315.44C-.13,37.11,22.84,7.05,58.2.85c4.23-.74,8.63-.61,12.96-.62,52.66-.04,105.31-.02,157.97-.02Zm50.95,425.58c-.44,11.95,1.89,15.4,8.74,16.47,6.71,1.05,10.52-.95,12.46-8.36,2.53-9.63,4.17-19.5,5.97-29.31,4.17-22.75,8.14-45.53,12.37-68.27.5-2.71,1.76-5.41,3.24-7.76,2.07-3.29,5.74-3.54,7.74-.25,2.01,3.32,3.74,7.19,4.23,10.99,1.81,13.87,2.97,27.83,4.52,41.73,1.03,9.27,2.12,18.53,3.54,27.74.88,5.65,4.87,8.53,10.19,8.18,5.22-.34,8.36-3.39,9.06-8.86.25-1.98.52-3.98.54-5.97.25-23.31.32-46.61.73-69.92.28-16.01,1.41-31.79,8.71-46.7,9.02-18.41,15.95-37.69,20.66-57.71,3.18-13.54,3.28-26.8-3.58-39.3-1.58-2.89-4.15-5.87-7.01-7.32-13.35-6.74-26.32-14.25-35.94-25.74-9.51-11.36-21.42-14.04-34.9-12.69-7.06.71-14.34,1.9-20.87,4.49-15.93,6.32-31.81,12.95-47.13,20.6-24.51,12.25-49.23,23.45-76.98,25.92-1.16.1-2.34.18-3.46.48-5.41,1.46-7.11,6.19-3.24,10.22,2.7,2.8,6.07,5.23,9.57,6.96,12.26,6.06,25.41,3.84,38.34,3.48,7.79-.21,15.64-1.02,23.34-.28,7.36.71,10.94,6.06,10.04,13.5-.51,4.25-1.65,8.52-3.15,12.54-7.22,19.24-18.75,35.98-31.03,52.22-17.78,23.51-35.73,46.9-53.52,70.41-4.23,5.59-3.08,12.01,2.61,16.79,5.16,4.33,10.2,3.82,15.41-1.47,22.45-22.77,44.9-45.53,67.39-68.26,1.51-1.53,3.17-3.01,5.02-4.08,4.15-2.4,7.61-.67,7.49,4.05-.08,3.22-1.02,6.61-2.37,9.57-9.17,20.16-18.62,40.2-27.84,60.35-4.99,10.9-9.97,21.82-14.45,32.94-3.98,9.87,2.72,19.2,12.66,18.35,4.84-.41,7.66-3.31,9.92-7.36,14.73-26.49,29.51-52.96,44.41-79.36,3.02-5.35,6.32-10.59,9.97-15.53,2.26-3.07,4.65-2.45,5.63,1.2.64,2.36.92,4.96.69,7.39-1.36,14.09-2.87,28.16-4.44,42.22-1.83,16.36-3.77,32.72-5.28,45.7Zm-60.93-191.35c-3.64,0-5.62-.04-7.59,0-9.81.25-19.65,1.09-29.44.64-12.96-.59-24.77-5.05-34.54-13.86-7.18-6.48-11.16-14.58-9.83-24.47,1.78-13.27,10.79-21.62,26.24-22.82,16.07-1.25,30.65-7.26,45.65-12.13,4.38-1.42,5.93-3.74,6.04-8.63.43-18.8,1.37-37.6,2.44-56.38,1.12-19.61,2.68-39.2,3.92-58.8.45-7.03-4.43-12.37-11.61-13.16-6.85-.75-10.76,2.48-12.23,10.16-.66,3.43-1.24,6.87-1.9,10.3-5.35,27.59-10.7,55.19-16.1,82.77-.81,4.15-.78,9.13-6.29,10.13-3.25.59-6.52-4.28-7.49-10.52-3.09-19.89-6.07-39.8-9.24-59.68-2.23-13.96-4.57-27.91-7.13-41.82-2.01-10.92-12.65-15.34-21-9.01-3.57,2.71-4.57,6.31-4.19,10.59,1.25,13.93,2.61,27.86,3.6,41.81,1.49,21.1,2.81,42.21,3.92,63.33.14,2.68-1.37,5.45-2.12,8.17-2.36-1.84-5.36-3.25-6.94-5.61-3.32-4.96-5.98-10.38-8.75-15.69-11.77-22.58-23.39-45.25-35.27-67.77-3.63-6.88-7.55-8.14-13.88-5.55-6.08,2.49-8.19,6.57-6.19,13.74,1.43,5.1,3.55,10.04,5.67,14.91,10.79,24.89,21.72,49.71,32.49,74.61,1.18,2.72,1.95,5.7,2.39,8.63.82,5.42-1.96,7.9-6.92,5.82-3.1-1.3-6.21-3.39-8.41-5.92-9.6-11.07-18.84-22.45-28.28-33.66-5.79-6.88-11.57-13.78-17.65-20.4-3.67-3.99-8.8-4.23-12.64-1.32-4.51,3.42-5.46,7.55-2.74,12.65,2.19,4.11,4.3,8.3,6.85,12.19,11.56,17.71,23.23,35.33,34.9,52.96,9.19,13.87,16.22,28.4,18.37,45.33,2.54,20,7.64,39.54,15.05,58.34,5.21,13.22,13.15,24.35,26.7,30.28,2.17.95,4.79,1.34,7.18,1.27,9.79-.29,19.58-.75,29.35-1.42,1.87-.13,4.34-.95,5.37-2.32,13.34-17.88,26.75-35.72,39.52-54.01,4.87-6.98,8.15-15.06,12.71-23.7Zm218.26-23.99c-2.03-8.2-3.89-16.07-5.98-23.87-.73-2.71-2.42-5.2-5.73-3.94-3.35,1.28-2.81,4-2.21,7.11,1.57,8.09,3.66,16.32,3.44,24.43-.22,7.79-2.86,15.58-4.9,23.24-.78,2.92-1.36,5.36,1.72,6.75,3.1,1.4,4.99-.51,6.24-3.22.28-.6.68-1.18.83-1.81,2.21-9.5,4.38-19.01,6.6-28.69Zm-363.46,84.52c.95,2.78,1.28,4.85,2.3,6.51,4.58,7.48,8.6,15.51,14.29,22.06,5.01,5.76,11.95,9.85,18.08,14.62.77.6,1.82,1.32,2.66,1.24,2.19-.23,5.2-.17,6.33-1.52,1.99-2.4.1-4.65-2.42-5.88-9.95-4.85-18.11-11.8-23.92-21.2-3.12-5.05-5.34-10.66-8.4-15.75-.99-1.64-3.3-3.13-5.17-3.35-1.16-.14-2.62,2.23-3.75,3.28Zm-17.43,7.28c1.66,4.68,2.88,8.64,4.45,12.46,5.88,14.33,14.71,26.33,28.13,34.52,2.57,1.57,5.47,2.44,7.32-.91,1.71-3.09-.45-4.91-2.88-6.37-9.52-5.73-16.61-13.74-21.39-23.68-2.5-5.2-4.07-10.85-6.59-16.05-.79-1.64-3.2-3.17-5.04-3.39-1.18-.14-2.66,2.2-4,3.42Zm359.49-90.04c-.59-10.97-2.68-21.35-8.11-30.79-.93-1.62-4.12-3.29-5.73-2.87-3.2.83-3.14,3.8-1.72,6.55,7.9,15.37,7.92,31.35,3.52,47.61-.81,3-1.47,5.86,2.26,6.92,3.87,1.11,5.51-1.69,6.09-4.85,1.37-7.5,2.48-15.05,3.69-22.58Z" stroke-width="0"/>
  </g>
</svg>