<?xml version="1.0" encoding="UTF-8"?>
<svg id="Camada_2" data-name="Camada 2" xmlns="http://www.w3.org/2000/svg" viewBox="0 0 319.49 312.6">
  <g id="Camada_2-2" data-name="Camada 2">
    <g>
      <path fill="currentColor" d="m45.62,206.76c-3.92,19.39-7.85,38.77-11.76,58.16-2.4,11.9-4.65,23.83-7.2,35.7-1.86,8.66-8.41,13.13-16.36,11.59-7.49-1.45-11.65-8.63-9.91-17.35,5.52-27.55,11.1-55.1,16.64-82.65.35-1.76.59-3.54.89-5.31-9.84-1.78-10.03-1.85-6.51-11.41,3.89-10.57,5.88-21.26,5.46-32.65-.57-15.64-.17-31.32-.13-46.98.03-11.32,6.32-17.66,17.56-17.72,9.16-.05,18.33-.06,27.49.02,5.98.05,8.91,1.53,12.8,6.32-2.76.7-5.34,1.36-7.91,2.01.02.18.04.36.06.54,2.25.1,4.63-.26,6.71.37,8.51,2.59,12.59-1.49,15.49-8.93,2.23-5.7,5.48-11.01,8.4-16.43,3.4-6.32,9.43-8.49,15-5.53,5.56,2.96,7.26,9.21,4.03,15.54-5.29,10.37-10.75,20.67-16.06,31.03-2.78,5.43-7.17,7.48-13.13,6.96-6.94-.61-13.9-.99-21.12-.51,2.34.79,4.64,1.97,7.04,2.27,4.74.6,5.74,3.21,5.53,7.53-.33,6.65.24,13.34-.16,19.99-.8,13.49.96,26.47,5.73,39.15,2.29,6.08,1.74,6.59-4.58,8.45,1.38,3.74,2.56,7.56,4.17,11.19,4.79,10.79,6.5,22.28,8.04,33.83,1.78,13.36,3.67,26.7,5.49,40.06.31,2.31.67,4.63.7,6.96.09,6.79-4.74,12.51-11.1,13.33-7.27.95-13.79-2.98-15.05-10.01-2-11.13-3.82-22.33-4.86-33.58-1.91-20.57-6.98-40.25-15.22-59.12-.75-1.71-2.94-2.78-4.46-4.15-.57.44-1.15.87-1.72,1.31Z" stroke-width="0"/>
      <path fill="currentColor" d="m240.93,195.76c-.64,13.7-1.17,27.32-1.99,40.92-.22,3.58-.84,7.31-2.17,10.61-7.38,18.36-15.02,36.61-22.6,54.89-3.67,8.86-10.97,12.47-18.57,9.28-7.6-3.19-10.2-10.81-6.55-19.72,6.99-17.08,14.13-34.1,21.04-51.22,1.09-2.7,1.69-5.73,1.86-8.65.71-12.64,1.12-25.29,1.81-37.93.1-1.86.75-3.97,1.83-5.46,13.22-18.17,26.57-36.25,39.91-54.35.48-.65,1.1-1.2,1.73-1.88,6.31,4.65,9.8,12.71,18.76,14.1,0,13.75-.15,27.38.09,41,.07,3.89.81,7.93,2.06,11.62,3.18,9.45,7.24,18.62,10.13,28.15,1.91,6.31,2.58,13.02,3.52,19.59,2.37,16.63,4.59,33.29,6.86,49.94.99,7.29-4.02,14.45-10.9,15.6-7.73,1.3-14.68-3.08-15.87-10.84-2.88-18.91-4.88-37.97-8.18-56.8-1.67-9.56-5.28-18.79-8.23-28.1-1.71-5.38-4.15-10.54-5.72-15.95-1.31-4.49-3.48-6.6-8.81-4.81Z" stroke-width="0"/>
      <path fill="currentColor" d="m249.28,122.72c-11.61,15.76-23.04,31.28-35.08,47.62-.23-2.17-.46-3.38-.46-4.58-.02-18.15-.05-36.31,0-54.46.03-10.56,6.42-17.31,16.88-17.54,9.49-.21,18.99-.19,28.47.05,3.01.08,5.99,1.17,9.94,2-2.72,3.67-4.73,6.39-6.87,9.27,4.63,2.88,9.2,7.88,13.96,8.07,4.39.17,9.02-4.76,13.47-7.57,4.22-2.66,8.27-5.6,12.52-8.22,5.71-3.51,11.93-2.2,15.33,3.02,3.21,4.93,2.05,11.38-3.18,14.96-10.3,7.05-20.76,13.85-31.19,20.72-4.37,2.88-8.73,2.61-13.08-.19-6.84-4.39-13.72-8.71-20.73-13.15Z" stroke-width="0"/>
      <path fill="currentColor" d="m117.7,105.41q3.11-8.75,10.85-8.75c4.17,0,8.34.07,12.5-.11,4.56-.19,7.82-2.4,9.83-7.51h-25.65c-.38-3.21-.68-5.77-1.04-8.85h23.9c.2-.57.4-1.14.6-1.72-2.48-1.02-4.89-2.48-7.47-2.94-2.91-.52-5.98-.2-8.98-.15-5.77.1-11,.05-16.19-4.12-5.82-4.69-13.18-3.86-18.97.92-3.31,2.73-6.53,3.49-10.44,3.21-1.49-.11-3.01.09-4.5-.04-5.18-.44-8.91.51-12.4,5.56-5.57,8.05-14.38,10.47-23.99,8.2-9.22-2.18-15.07-8.23-17.62-17.25-.35-1.25.87-4.11,1.89-4.41,14.17-4.21,28.43-8.09,43.33-12.24.98,3.69,1.9,7.14,3.02,11.37,1.52,0,3.46,0,5.41,0,18.84,0,37.67.08,56.51-.03,8.94-.05,15.88,3.07,20.14,11.24.43.82,1.25,2.12,1.82,2.08,5.86-.39,11.91-.27,17.49-1.81,4.16-1.14,7.64-4.62,11.54-6.85,3.58-2.04,5.9-.87,6.04,3.23.22,6.33.22,12.67-.03,19-.15,3.76-2.42,4.8-5.85,3.06-1.18-.6-2.39-1.26-3.37-2.13-6.68-5.91-14.71-6.42-22.96-5.57-1.33.14-3.11,1.59-3.63,2.86-3.83,9.34-9.87,13.68-19.84,13.73-7.15.04-14.31,0-21.92,0Z" stroke-width="0"/>
      <path fill="currentColor" d="m252.24,20.87c-1.12-4.36-2.12-8.21-3.09-12.07-.72-2.87-.43-5.56,2.8-6.5,3.4-.99,5.32.86,6.1,4.15.57,2.42,1.24,4.82,1.88,7.23.67,2.51.97,4.98,4.43,5.75,1.29.29,2.61,2.95,2.89,4.69.81,5.08,1.03,10.26,1.64,15.38.33,2.75-.38,4.14-3.34,4.93-13.48,3.61-26.91,7.42-40.3,11.35-2.74.8-3.87.02-4.93-2.39-1.95-4.41-4.25-8.66-6.32-13.02-2.62-5.54-1.35-8.19,4.7-9.89,9.92-2.79,19.84-5.55,29.76-8.34,1.1-.31,2.16-.73,3.78-1.29Z" stroke-width="0"/>
      <path fill="currentColor" d="m71.44,48.32c-15.53,4.38-30.81,8.69-46.49,13.11-3.01-6.12-6.07-11.98-8.78-18-1.5-3.35.05-6.11,3.39-7.09,14.33-4.2,28.7-8.28,43.12-12.16,4.19-1.13,6.58.93,7.07,5.44.64,5.94,1.08,11.9,1.69,18.69Z" stroke-width="0"/>
      <path fill="currentColor" d="m270.45,50.5c4.57,8.8,3.17,19.17-3.22,26.6-6.4,7.43-16.95,10.25-26.36,7.03-9.14-3.12-15.52-11.24-15.93-20.8,15.02-4.24,30.17-8.51,45.52-12.83Z" stroke-width="0"/>
      <path fill="currentColor" d="m305.59,88.3c-3.05,1.31-5.61,2.4-8.55,3.66-2.72-11.91-5.41-23.55-8.03-35.21-2.87-12.81-5.61-25.66-8.59-38.44-.42-1.78-1.69-3.49-2.92-4.92-2.9-3.38-3.36-6.89-.64-10.41,2.46-3.19,5.95-3.76,9.41-1.96,3.92,2.04,4.96,5.4,3.67,9.73-.57,1.93-.69,4.22-.26,6.18,5.2,23.69,10.54,47.35,15.92,71.38Z" stroke-width="0"/>
      <path fill="currentColor" d="m313.72,124.64c1.99,8.7,4.21,17.37,5.75,26.15.29,1.67-2.08,3.8-3.22,5.72-1.84-1.24-4.83-2.13-5.33-3.78-2.09-6.81-4.13-13.79-4.66-20.82-.19-2.54,3.92-5.4,6.07-8.11.46.28.93.56,1.39.84Z" stroke-width="0"/>
    </g>
  </g>
</svg>